# xmcd
#
# Track frame offsets:
#      150
#      17562
#      29745
#      46902
#      63820
#      80500
#      96235
#      115412
#      139537
#      156500
#      171587
# 
# Disc length: 2451 seconds
#
# Revision: 1
# Processed by: cddbd v1.4PL0 Copyright (c) Steve Scherf et al.
#
# Submitted via: FreeRIP 1.21
#
DISCID=9309910b
DTITLE=Mikko Kuustonen - Abrakadabra
DYEAR=1992
DGENRE=Rock
TTITLE0=Hopealanka
TTITLE1=Joo Mä Tuun
TTITLE2=Abrakadabra
TTITLE3=Kun Kissat Jättää Kaupungin
TTITLE4=Kosmos
TTITLE5=Mississippi
TTITLE6=Kun Aika On
TTITLE7=Outoja Aikoja
TTITLE8=Kapteeni
TTITLE9=Joojoomies
TTITLE10=Lasihelmistä Äiti maa
EXTD=
EXTT0=
EXTT1=
EXTT2=
EXTT3=
EXTT4=
EXTT5=
EXTT6=
EXTT7=
EXTT8=
EXTT9=
EXTT10=
PLAYORDER=
